<?xml version="1.0" standalone="no"?>
<!DOCTYPE svg PUBLIC "-//W3C//DTD SVG 20010904//EN"
 "http://www.w3.org/TR/2001/REC-SVG-20010904/DTD/svg10.dtd">
<svg version="1.0" xmlns="http://www.w3.org/2000/svg"
 width="1024.000000pt" height="1024.000000pt" viewBox="0 0 1024.000000 1024.000000"
 preserveAspectRatio="xMidYMid meet">

<g transform="translate(0.000000,1024.000000) scale(0.100000,-0.100000)"
fill="#000000" stroke="none">
<path d="M4680 8795 c-345 -58 -701 -172 -971 -311 -109 -56 -134 -82 -134
-138 0 -55 26 -92 73 -107 37 -11 46 -8 198 59 357 158 538 212 1023 304 84
16 119 68 99 145 -5 18 -20 41 -34 52 -34 27 -79 26 -254 -4z"/>
<path d="M5151 8793 c-30 -37 -36 -68 -22 -114 17 -56 43 -69 168 -80 311 -28
642 -117 993 -268 149 -64 165 -68 198 -59 21 6 76 8 124 5 79 -5 89 -4 98 13
41 76 -35 132 -370 275 -360 153 -790 255 -1082 255 -82 0 -88 -1 -107 -27z"/>
<path d="M5050 8444 c-14 -2 -56 -9 -95 -15 -208 -34 -400 -142 -537 -303
-199 -233 -262 -548 -172 -864 36 -126 139 -328 233 -453 l79 -106 -172 -6
c-138 -4 -189 -10 -267 -30 -236 -62 -400 -155 -555 -319 -85 -90 -118 -137
-173 -245 -139 -278 -143 -580 -12 -915 217 -554 833 -1127 1596 -1483 77 -36
148 -65 159 -65 22 0 351 158 479 232 287 162 559 368 772 583 358 361 567
752 600 1125 19 209 -63 492 -194 669 -219 295 -539 447 -949 452 -67 1 -124
5 -127 9 -3 4 2 14 11 21 24 20 128 169 178 256 163 282 201 612 102 877 -127
337 -453 565 -831 581 -55 2 -111 2 -125 -1z m110 -434 c27 0 78 -64 122 -154
26 -56 55 -106 63 -112 9 -6 47 -15 86 -18 95 -10 190 -40 217 -69 32 -34 38
-86 17 -128 -10 -19 -56 -73 -103 -122 l-86 -87 17 -103 c10 -56 17 -126 17
-155 0 -46 -4 -58 -31 -84 -28 -28 -34 -30 -83 -25 -36 3 -86 22 -156 57
l-103 52 -105 -53 c-90 -46 -113 -53 -163 -54 -47 0 -63 4 -81 22 -30 31 -35
116 -13 242 l18 101 -84 87 c-112 116 -135 166 -107 228 21 46 77 65 296 101
31 5 36 12 77 100 24 52 54 109 66 126 23 32 75 60 97 53 8 -3 17 -5 22 -5z
m566 -1366 c194 -56 324 -254 297 -452 -14 -99 -52 -168 -135 -248 -37 -36
-68 -67 -68 -68 0 -2 17 -8 38 -14 55 -17 153 -82 190 -128 60 -72 86 -138 90
-233 10 -200 -88 -339 -292 -419 -34 -13 -108 -17 -451 -22 -456 -7 -465 -8
-524 -76 -78 -88 -59 -231 37 -287 37 -22 140 -49 252 -67 58 -10 80 -18 102
-40 63 -64 7 -140 -102 -140 -58 0 -255 56 -323 92 -200 107 -245 385 -90 558
25 28 64 60 86 71 104 54 96 53 532 59 389 5 412 6 455 26 102 47 152 121 152
223 0 90 -47 163 -130 206 -19 9 -81 30 -138 46 l-104 29 -508 0 c-463 0 -510
2 -542 18 -70 35 -78 105 -17 142 30 19 52 20 422 20 373 0 397 1 535 25 209
37 297 82 345 178 34 69 34 136 -1 205 -46 93 -110 129 -250 139 l-73 6 76 83
c42 46 78 84 81 84 2 0 28 -7 58 -16z m-81 -369 c33 -32 32 -72 -2 -107 l-27
-28 -470 0 c-259 0 -504 -5 -544 -10 -196 -25 -313 -145 -300 -304 8 -102 86
-191 203 -235 54 -20 73 -21 620 -21 343 0 574 -4 589 -10 15 -5 34 -26 43
-45 16 -33 16 -39 2 -63 -8 -15 -26 -32 -39 -39 -33 -17 -1133 -19 -1212 -2
-136 28 -271 130 -331 251 -106 212 -17 467 202 577 114 58 126 59 709 60
l533 1 24 -25z m-430 -1350 c107 -11 209 -40 269 -79 172 -110 208 -358 74
-510 -55 -64 -104 -86 -308 -141 -96 -25 -197 -52 -225 -60 -92 -25 -101 -26
-128 -5 -13 11 -28 31 -31 45 -9 35 17 91 51 108 15 8 118 38 228 66 229 60
276 79 306 127 47 77 12 197 -69 231 -20 9 -101 29 -180 44 -152 31 -189 47
-199 87 -13 53 52 107 117 97 14 -2 57 -7 95 -10z"/>
<path d="M2980 8284 c-190 -50 -340 -198 -395 -388 -13 -45 -16 -85 -13 -166
4 -98 7 -114 41 -185 21 -43 54 -101 75 -129 33 -45 37 -58 42 -128 3 -43 8
-78 13 -78 4 0 43 0 87 0 l80 0 0 159 0 159 -36 52 c-46 66 -64 119 -64 184 0
117 69 220 181 271 146 65 319 0 397 -150 37 -72 37 -169 -1 -246 -23 -49 -27
-68 -27 -148 l0 -92 78 3 77 3 42 62 c61 91 85 163 91 267 9 167 -37 285 -158
406 -81 81 -144 117 -246 144 -76 20 -190 20 -264 0z"/>
<path d="M6460 7922 c0 -126 4 -175 20 -237 43 -169 165 -318 321 -394 47 -22
93 -41 102 -41 30 0 35 -34 36 -220 1 -175 2 -186 22 -202 12 -10 25 -18 29
-18 4 0 32 23 61 50 29 28 56 50 59 50 3 0 29 -23 58 -50 30 -28 59 -50 66
-50 7 0 21 9 32 21 17 19 20 43 24 217 l5 195 50 17 c164 56 282 158 354 306
47 96 61 171 68 353 l6 164 -109 -6 c-206 -11 -332 -64 -465 -197 l-86 -85
-65 70 c-64 69 -160 134 -244 167 -66 26 -188 48 -269 48 l-75 0 0 -158z m404
-177 c23 -13 52 -34 65 -45 23 -19 23 -23 12 -77 -6 -31 -11 -74 -11 -95 l0
-39 -32 18 c-86 49 -170 168 -184 260 l-7 43 58 -20 c32 -11 77 -31 99 -45z
m642 18 c-17 -94 -75 -188 -148 -237 -29 -20 -56 -36 -60 -36 -5 0 -8 26 -8
59 0 32 -5 72 -11 90 -10 27 -8 35 7 53 38 41 162 106 208 107 16 1 17 -4 12
-36z m-345 -106 c25 -35 37 -125 25 -192 -6 -33 -55 -95 -74 -95 -4 0 -24 16
-43 36 -33 35 -34 36 -34 122 0 94 18 141 59 160 28 12 38 7 67 -31z m19 -436
c25 -89 4 -183 -47 -216 -25 -17 -26 -16 -61 19 -36 35 -36 36 -36 121 l0 85
39 40 39 40 28 -27 c15 -15 33 -43 38 -62z"/>
<path d="M2999 7371 l-29 -29 0 -151 0 -151 -115 0 -115 0 0 -95 c0 -83 2 -96
19 -105 11 -6 90 -10 186 -10 163 0 166 0 190 25 l25 24 0 231 0 232 -29 29
c-22 21 -39 29 -66 29 -27 0 -44 -8 -66 -29z"/>
<path d="M2356 7358 c-31 -23 -198 -271 -237 -351 l-24 -49 30 -25 c36 -29
119 -73 139 -73 8 0 26 15 40 33 39 47 217 318 227 345 13 34 -6 97 -38 121
-35 28 -99 27 -137 -1z"/>
<path d="M7754 7286 c-28 -28 -34 -41 -34 -78 0 -38 11 -63 81 -174 104 -166
117 -180 157 -166 50 17 142 81 142 97 0 43 -178 326 -215 343 -49 23 -94 15
-131 -22z"/>
<path d="M3375 7215 c-24 -23 -25 -28 -25 -179 0 -146 1 -156 23 -180 34 -40
77 -43 115 -11 l32 27 0 163 0 164 -26 20 c-37 29 -89 27 -119 -4z"/>
<path d="M8123 6760 c-56 -25 -93 -63 -93 -95 0 -14 23 -73 50 -130 38 -79 57
-108 80 -120 61 -31 137 -10 166 47 14 26 14 38 4 71 -22 73 -90 206 -117 226
-31 26 -37 26 -90 1z"/>
<path d="M1987 6752 c-30 -33 -113 -239 -99 -244 4 -2 59 -2 123 0 l116 3 27
67 c33 85 33 102 -1 135 -55 52 -137 72 -166 39z"/>
<path d="M1991 6326 c-9 -11 -12 -59 -9 -171 l3 -157 29 -24 29 -25 262 3
c340 4 315 -12 315 209 0 122 -3 159 -14 168 -9 8 -46 11 -103 9 l-88 -3 -5
-80 -5 -80 -102 -3 -102 -3 -3 83 -3 83 -96 3 c-75 2 -99 -1 -108 -12z"/>
<path d="M1685 6216 c-17 -7 -36 -25 -43 -40 -9 -21 -12 -212 -12 -802 l0
-776 34 -34 34 -34 599 0 c458 0 604 3 623 13 14 7 33 28 42 47 17 32 18 91
18 790 0 699 -1 758 -18 790 -24 48 -54 61 -136 58 l-70 -3 -1 -145 c0 -80 -2
-408 -3 -730 l-2 -585 -448 1 -447 1 -3 731 -2 732 -68 0 c-37 -1 -81 -7 -97
-14z"/>
<path d="M7774 6189 c-18 -5 -46 -25 -63 -45 l-32 -35 3 -117 c3 -111 4 -117
23 -113 49 10 729 12 757 2 21 -8 36 -7 50 0 18 10 19 19 16 119 -3 122 -16
150 -79 182 -30 16 -67 18 -339 17 -168 0 -319 -5 -336 -10z"/>
<path d="M7800 5684 l0 -56 -87 -100 c-147 -167 -195 -230 -227 -298 l-31 -65
-3 -269 c-2 -149 -1 -285 3 -303 l6 -33 640 0 640 0 -3 308 -3 308 -37 75
c-26 51 -73 116 -157 212 -66 75 -125 146 -131 156 -5 11 -10 42 -10 70 l0 51
-300 0 -300 0 0 -56z m719 -458 c8 -9 11 -81 9 -237 l-3 -224 -427 -3 -428 -2
-1 87 c-2 157 3 378 7 385 3 5 191 8 418 8 339 0 416 -2 425 -14z"/>
<path d="M7729 5059 c-39 -41 -38 -81 1 -120 l30 -30 339 3 339 3 26 24 c29
27 35 83 13 112 -28 37 -49 39 -387 39 l-332 0 -29 -31z"/>
<path d="M2245 5638 c-22 -20 -26 -33 -32 -105 l-6 -83 -88 0 c-76 0 -92 -3
-109 -20 -29 -29 -27 -94 5 -125 22 -23 32 -25 110 -25 l85 0 0 -59 c0 -97 26
-141 85 -141 21 0 44 9 62 24 25 21 28 31 31 100 l4 76 85 0 c80 0 86 2 114
29 32 33 36 58 14 100 -19 38 -35 43 -131 42 l-81 -1 -5 82 c-4 73 -8 84 -32
105 -34 29 -77 29 -111 1z"/>
<path d="M8392 4360 c-33 -20 -62 -73 -76 -136 -26 -116 -120 -379 -202 -561
-35 -77 -64 -153 -64 -168 0 -42 36 -92 75 -105 42 -14 92 -1 122 33 68 74
249 544 299 776 16 75 16 84 2 115 -16 33 -68 66 -105 66 -10 0 -33 -9 -51
-20z"/>
<path d="M1699 4321 c-23 -23 -29 -38 -29 -71 0 -65 117 -397 190 -541 41 -79
136 -87 195 -17 35 42 31 71 -30 213 -26 61 -67 169 -91 240 -54 159 -61 173
-96 191 -47 24 -105 18 -139 -15z"/>
<path d="M7216 3988 c-36 -48 -72 -134 -86 -206 -17 -84 -6 -160 35 -238 l34
-64 -4 -136 c-4 -156 -8 -166 -138 -396 l-72 -128 -46 0 c-57 0 -107 -20 -154
-62 -90 -79 -116 -223 -59 -328 92 -168 322 -197 452 -56 56 61 75 106 76 181
0 74 -26 135 -84 199 l-42 45 20 28 c10 15 40 68 64 116 l45 88 70 -123 70
-123 -29 -33 c-96 -112 -103 -254 -16 -363 126 -160 384 -129 472 56 82 171
-42 376 -227 376 l-56 0 -76 130 c-42 71 -91 160 -110 198 -35 69 -35 70 -35
210 0 131 1 142 24 175 73 108 55 318 -38 439 -17 23 -39 43 -48 45 -9 2 -27
-12 -42 -30z"/>
<path d="M2750 3835 c-36 -8 -95 -26 -132 -40 -68 -27 -179 -93 -193 -115 -8
-13 150 -180 171 -180 6 0 38 13 71 29 33 16 80 35 104 41 24 6 52 13 62 16
15 5 17 20 17 135 0 147 9 137 -100 114z"/>
<path d="M3020 3723 l0 -129 89 -28 c55 -17 115 -44 155 -72 37 -24 69 -44 72
-44 3 0 48 37 100 81 106 93 106 83 10 155 -108 82 -253 142 -378 159 l-48 6
0 -128z"/>
<path d="M6753 3557 c12 -134 79 -254 174 -315 168 -107 295 -30 219 134 -57
123 -193 216 -350 239 l-49 8 6 -66z"/>
<path d="M7659 3602 c-154 -40 -279 -162 -303 -294 -24 -134 139 -149 278 -27
57 51 110 155 126 248 17 100 14 103 -101 73z"/>
<path d="M2253 3513 c-84 -109 -139 -235 -163 -369 -19 -105 -8 -310 20 -399
26 -83 89 -207 128 -254 l28 -34 97 79 c53 43 97 81 97 85 0 4 -15 34 -34 66
-61 103 -80 173 -80 303 -1 138 22 223 89 325 l43 65 -91 85 c-51 47 -95 85
-99 85 -3 0 -19 -17 -35 -37z"/>
<path d="M3545 3405 c-50 -42 -91 -80 -93 -85 -2 -4 8 -30 22 -57 45 -90 60
-160 60 -278 -1 -121 -10 -159 -70 -278 -19 -38 -34 -72 -32 -77 4 -10 181
-160 189 -160 11 0 66 92 104 172 59 128 78 230 72 383 -6 145 -27 235 -79
338 -34 69 -66 117 -76 117 -4 0 -48 -34 -97 -75z"/>
<path d="M4720 3279 c-149 -16 -270 -77 -385 -193 -63 -63 -90 -100 -122 -166
-122 -249 -90 -529 88 -764 128 -168 729 -756 816 -798 20 -10 32 -3 106 60
228 192 637 598 740 735 161 213 205 455 126 690 -68 203 -255 375 -464 426
-70 18 -237 15 -310 -4 -33 -9 -86 -29 -118 -45 l-58 -29 -62 29 c-112 52
-235 73 -357 59z m204 -299 c56 -21 124 -79 182 -153 l30 -39 47 62 c141 180
378 201 539 46 126 -120 150 -302 65 -480 -51 -107 -137 -207 -404 -474 l-245
-243 -96 90 c-54 49 -163 156 -243 238 -228 231 -301 326 -345 450 -74 211 34
446 235 507 69 22 170 20 235 -4z"/>
<path d="M3175 3211 c-16 -10 -86 -76 -154 -145 l-125 -127 -80 79 c-45 44
-92 87 -106 96 -81 53 -195 -35 -158 -123 7 -16 79 -93 160 -171 129 -123 152
-140 181 -140 45 0 65 16 270 221 157 156 177 179 177 208 0 44 -27 87 -66
106 -42 20 -63 19 -99 -4z"/>
<path d="M3280 2498 c-43 -35 -132 -75 -208 -93 -138 -34 -317 -7 -436 66 -27
16 -52 28 -56 27 -15 -6 -190 -152 -190 -160 0 -14 88 -77 157 -112 96 -48
227 -85 328 -92 189 -15 413 52 579 174 l49 36 -44 39 c-24 22 -69 61 -99 87
l-55 48 -25 -20z"/>
<path d="M3514 2148 c-17 -4 -43 -20 -58 -34 -34 -34 -37 -113 -6 -144 71 -71
759 -341 830 -325 64 14 98 92 66 153 -26 50 -61 71 -195 117 -150 51 -196 70
-400 163 -163 73 -193 82 -237 70z"/>
<path d="M6515 2089 c-140 -66 -322 -140 -450 -184 -97 -32 -120 -47 -145 -88
-41 -67 -15 -158 50 -172 75 -16 770 263 815 328 25 36 19 102 -13 138 -23 26
-37 32 -78 35 -43 4 -64 -3 -179 -57z"/>
</g>
</svg>
